I had to download 10 - Il nostro viaggio.mp3 separetely from the rest so it's only 128 kbps, the rest of the album is 192 kbps


General
Complete name                    : 01 - Se no che vita è.mp3
Format                           : MPEG Audio
File size                        : 5.33 MiB
Duration                         : 3mn 53s
Overall bit rate                 : 192 Kbps
Album                            : La musica che piace a noi
Track name                       : Se no che vita è
Track name/Position              : 1
Performer                        : B-nario
Recorded date                    : 1996
Writing library                  : LAME3.96.1

Audio
Format                           : MPEG Audio
Format version                   : Version 1
Format profile                   : Layer 3
Duration                         : 3mn 53s
Bit rate mode                    : Constant
Bit rate                         : 192 Kbps
Channel(s)                       : 2 channels
Sampling rate                    : 44.1 KHz
Resolution                       : 16 bits
Stream size                      : 5.33 MiB (100%)
Writing library                  : LAME3.96.1















General
Complete name                    : 10 - Il nostro viaggio.mp3
Format                           : MPEG Audio
File size                        : 4.18 MiB
Duration                         : 4mn 33s
Overall bit rate                 : 128 Kbps
Track name                       : Il Nostro Viaggio
Performer                        : Binario
Genre                            : Other

Audio
Format                           : MPEG Audio
Format version                   : Version 1
Format profile                   : Layer 3
Duration                         : 4mn 33s
Bit rate mode                    : Constant
Bit rate                         : 128 Kbps
Channel(s)                       : 2 channels
Sampling rate                    : 44.1 KHz
Resolution                       : 16 bits
Stream size                      : 4.18 MiB (100%)



